<?xml version="1.0" encoding="utf-8"?>
<!-- Generator: Adobe Illustrator 16.0.0, SVG Export Plug-In . SVG Version: 6.00 Build 0)  -->
<!DOCTYPE svg PUBLIC "-//W3C//DTD SVG 1.1//EN" "http://www.w3.org/Graphics/SVG/1.1/DTD/svg11.dtd">
<svg version="1.1" id="Layer_1" xmlns="http://www.w3.org/2000/svg" xmlns:xlink="http://www.w3.org/1999/xlink" x="0px" y="0px"
	 width="612px" height="792px" viewBox="0 0 612 792" enable-background="new 0 0 612 792" xml:space="preserve">
<title>writing</title>
<path fill="#004ED4" d="M544.266,214.661l60.812,49.207c8.023,6.518,9.271,18.294,2.789,26.347l-27.193,33.618l-89.947-72.715
	l27.243-33.668c6.545-7.972,18.277-9.214,26.347-2.789H544.266z M104.938,270.442c-8.747,0-15.838-7.091-15.838-15.838
	s7.091-15.838,15.838-15.838h264.214c8.747,0,15.838,7.091,15.838,15.838s-7.091,15.838-15.838,15.838H104.938z M47.265,116.994
	h379.611c26.059,0.109,47.155,21.207,47.265,47.265v28.04l-22.313,27.542c-2.298,2.842-4.269,5.933-5.877,9.214
	c-1.195,0.946-2.391,1.992-3.536,3.088v-67.884c-0.027-8.579-6.96-15.534-15.539-15.589H47.265
	c-8.598,0.027-15.562,6.991-15.589,15.589v463.482c0.025,4.128,1.67,8.081,4.582,11.007c2.911,2.935,6.874,4.584,11.007,4.582
	h379.611c8.582,0,15.539-6.957,15.539-15.539c0-0.017,0-0.033,0-0.05v-71.47l9.513-4.034c8.487-3.137,15.96-8.525,21.615-15.589
	l0.598-0.697v91.79c-0.245,25.969-21.295,46.931-47.265,47.065H47.265C21.261,674.752,0.164,653.744,0,627.741V164.259
	C0.109,138.201,21.207,117.104,47.265,116.994z M104.938,553.283c-8.761-0.491-15.465-7.991-14.974-16.752
	c0.453-8.075,6.899-14.521,14.974-14.974h174.914c-1.408,10.513-1.908,21.127-1.494,31.726H104.938z M104.938,459.003
	c-8.761-0.491-15.465-7.991-14.974-16.752c0.453-8.075,6.899-14.521,14.974-14.974h190.005v1.345l-5.229,30.381H104.938z
	 M104.938,364.723c-8.747,0-15.838-7.091-15.838-15.838s7.091-15.838,15.838-15.838h255.847l-25.45,31.676H104.938z
	 M434.546,505.471l-63.85,27.243c-46.567,17.282-44.476,27.044-39.844-19.175l13.995-80.783l0,0l0,0L477.129,268.4l89.648,72.715
	L434.646,505.471H434.546z M360.138,445.157l59.068,47.763l-41.936,17.93c-32.871,14.095-31.975,21.067-26.247-12.601
	L360.138,445.157L360.138,445.157z"/>
</svg>
