<?xml version="1.0" encoding="utf-8"?>
<!-- Generator: Adobe Illustrator 16.0.0, SVG Export Plug-In . SVG Version: 6.00 Build 0)  -->
<!DOCTYPE svg PUBLIC "-//W3C//DTD SVG 1.1//EN" "http://www.w3.org/Graphics/SVG/1.1/DTD/svg11.dtd">
<svg version="1.1" id="Layer_1" xmlns="http://www.w3.org/2000/svg" xmlns:xlink="http://www.w3.org/1999/xlink" x="0px" y="0px"
	 width="612px" height="792px" viewBox="0 0 612 792" enable-background="new 0 0 612 792" xml:space="preserve">
<title>trash-bin</title>
<path fill="#940000" d="M176.362,124.624V70.488c0.024-7.988,3.233-15.636,8.917-21.249l0,0c5.621-5.713,13.292-8.944,21.307-8.975
	h198.711c7.975,0.034,15.612,3.218,21.249,8.859l0,0c5.641,5.637,8.825,13.274,8.859,21.249v54.136h156.792
	c10.744-0.064,19.506,8.594,19.57,19.338c0,0.058,0,0.116,0,0.174v67.511c0.129,10.808-8.528,19.673-19.336,19.802
	c-0.001,0-0.002,0-0.003,0h-22.06l-48.057,505.002c-0.911,8.776-8.258,15.475-17.08,15.574H106.709
	c-9.481,0.002-17.212-7.601-17.37-17.08L41.63,231.333H19.512c-10.808-0.031-19.545-8.818-19.514-19.626
	c0-0.058,0.001-0.117,0.001-0.175v-67.395c-0.032-10.744,8.652-19.48,19.396-19.512c0.039,0,0.078,0,0.116,0H176.362z
	 M386.365,124.624V89.537H225.809v35.087H386.365z M286.488,325.42c0.005-10.873,8.824-19.682,19.696-19.676
	c10.864,0.005,19.671,8.811,19.676,19.676v299.978c0.006,10.872-8.804,19.69-19.676,19.696s-19.69-8.804-19.696-19.676
	c0-0.007,0-0.014,0-0.021V325.42z M402.924,323.973c0.18-10.871,9.137-19.538,20.008-19.359s19.538,9.137,19.359,20.007
	c-0.01,0.596-0.047,1.191-0.111,1.784l-19.512,300.209c-1.157,10.811-10.859,18.636-21.67,17.479
	c-10.153-1.087-17.79-9.758-17.586-19.968L402.924,323.973z M169.82,326.405c-0.671-10.825,7.559-20.144,18.383-20.815
	c10.824-0.672,20.144,7.559,20.815,18.383l19.744,299.921c0.688,10.824-7.53,20.156-18.354,20.844s-20.157-7.53-20.844-18.354
	L169.82,326.636V326.405z M535.63,233.533H76.37l45.973,483.752H489.6l46.32-483.752H535.63z"/>
</svg>
